<svg xmlns="http://www.w3.org/2000/svg" viewBox="0 0 90 140" fill="none" stroke="currentColor" stroke-width="3.5" stroke-linecap="round" stroke-linejoin="round" role="img" aria-label="Colector de levadura">
<path d="M30 22 Q30 15 38 15 H52 Q60 15 60 22 V99 Q60 104 56 109 L48 120 H42 L34 109 Q30 104 30 99Z"/><path d="M41 15 V8 H49 V15 M45 8 V4 H68 Q75 4 75 12 V25 M75 25 H79 M60 92 H73 V99 H60 M42 120 V127 H48 V120"/><rect x="42" y="35" width="7" height="58" rx="3"/><path d="M44 44 H47 M44 54 H47 M44 64 H47 M44 74 H47 M44 84 H47" stroke-width="1.4"/>
</svg>